<?xml version="1.0" standalone="no"?>
<!DOCTYPE svg PUBLIC "-//W3C//DTD SVG 20010904//EN"
 "http://www.w3.org/TR/2001/REC-SVG-20010904/DTD/svg10.dtd">
<svg version="1.0" xmlns="http://www.w3.org/2000/svg"
 width="1280.000000pt" height="640.000000pt" viewBox="0 0 1280.000000 640.000000"
 preserveAspectRatio="xMidYMid meet">
<metadata>
Created by potrace 1.15, written by Peter Selinger 2001-2017
</metadata>
<g transform="translate(0.000000,640.000000) scale(0.100000,-0.100000)"
fill="#000000" stroke="none">
<path d="M6805 5980 l170 -6 -203 0 c-111 1 -202 -3 -202 -8 0 -4 -43 -6 -96
-4 -53 2 -88 1 -78 -2 10 -4 -17 -10 -61 -14 -100 -9 -304 -42 -415 -67 -559
-129 -973 -373 -1234 -729 -27 -36 -51 -64 -55 -63 -3 1 -11 -3 -17 -8 -16
-13 -93 -39 -148 -50 -28 -5 -149 -14 -270 -19 -977 -45 -1777 -226 -2506
-568 -211 -98 -525 -285 -513 -305 3 -6 1 -7 -5 -3 -15 9 -64 -23 -55 -37 3
-5 2 -7 -4 -4 -6 4 -19 -1 -29 -9 -10 -9 -12 -12 -4 -8 9 4 12 3 7 -2 -5 -5
-16 -9 -25 -9 -9 0 -16 -6 -14 -13 1 -8 -2 -11 -7 -8 -5 3 -20 -3 -32 -15 -13
-11 -18 -17 -10 -13 9 5 12 3 7 -5 -4 -6 -11 -9 -15 -6 -12 7 -75 -45 -151
-124 -36 -37 -49 -49 -30 -26 19 22 0 5 -43 -40 -44 -44 -86 -90 -94 -102 -8
-13 -19 -20 -24 -17 -5 3 -8 0 -7 -8 2 -7 -3 -12 -9 -11 -7 2 -12 -1 -10 -6 1
-4 -28 -46 -64 -92 -181 -231 -287 -445 -340 -689 -31 -138 -33 -390 -6 -520
102 -481 420 -900 955 -1257 1260 -842 3411 -1082 5172 -578 361 104 652 218
978 386 106 54 190 94 187 89 -5 -9 16 -7 78 5 10 2 80 -20 155 -50 617 -240
1184 -381 1822 -451 196 -22 787 -26 955 -6 698 82 1177 275 1516 612 134 134
192 212 270 367 32 61 60 109 65 105 4 -4 4 -1 0 5 -9 16 24 124 36 117 5 -3
6 7 3 23 -5 22 -4 25 5 13 9 -12 10 -7 5 20 -5 26 -4 31 5 20 8 -11 9 -4 5 30
-3 31 -2 37 3 20 8 -23 9 -22 15 14 3 22 4 67 2 100 -3 42 -2 50 3 26 6 -28 9
-14 14 65 33 515 -217 1122 -699 1698 -539 645 -1351 1230 -2272 1639 -711
315 -1472 519 -2171 583 -189 17 -313 21 -331 10 -8 -5 -10 -4 -5 3 5 9 -38
11 -171 10 l-178 -2 170 -6z m358 -17 c-13 -2 -35 -2 -50 0 -16 2 -5 4 22 4
28 0 40 -2 28 -4z m105 -10 c-10 -2 -26 -2 -35 0 -10 3 -2 5 17 5 19 0 27 -2
18 -5z m125 -10 c-7 -2 -21 -2 -30 0 -10 3 -4 5 12 5 17 0 24 -2 18 -5z m60
-10 c-7 -2 -19 -2 -25 0 -7 3 -2 5 12 5 14 0 19 -2 13 -5z m-838 -1113 c1030
-61 2219 -448 3225 -1050 884 -529 1537 -1189 1725 -1744 l30 -85 -38 -39
c-21 -21 -34 -41 -31 -45 10 -10 -147 -81 -256 -117 -89 -29 -136 -39 -95 -19
17 8 17 9 -5 4 -14 -2 -32 -5 -40 -6 -10 0 -8 -3 5 -8 16 -7 13 -9 -19 -15
-21 -4 -41 -5 -44 -2 -3 3 5 6 18 6 13 0 21 3 18 6 -4 3 -42 -1 -85 -10 -290
-57 -759 -51 -1199 15 -273 41 -618 121 -929 216 -247 75 -303 108 -308 182
-1 16 -6 27 -11 23 -5 -3 -7 1 -4 9 18 46 59 196 74 269 22 103 24 351 5 455
-40 216 -112 398 -228 578 -25 40 -46 77 -46 84 0 7 -4 10 -8 7 -9 -5 -35 36
-31 49 1 5 -1 7 -5 4 -5 -2 -21 12 -38 32 -24 30 -25 32 -5 16 20 -17 19 -13
-7 20 -17 22 -41 49 -54 60 -13 11 -8 2 11 -20 l35 -40 -37 34 c-21 19 -35 37
-33 41 6 10 -51 75 -67 75 -7 1 -12 6 -11 12 3 13 -71 76 -79 68 -3 -3 -13 5
-24 17 l-19 23 25 -20 c21 -16 20 -14 -5 13 -16 18 -35 30 -43 27 -7 -2 -10 0
-7 5 8 12 -130 121 -285 224 -326 218 -683 385 -1170 550 -107 36 -203 70
-212 76 -10 5 -41 11 -70 12 -51 1 -51 2 17 8 113 10 180 10 360 0z m-5645
-834 c0 -2 -8 -10 -17 -17 -16 -13 -17 -12 -4 4 13 16 21 21 21 13z m-50 -39
c0 -2 -10 -12 -22 -23 l-23 -19 19 23 c18 21 26 27 26 19z m3654 -280 c35 -99
172 -370 247 -487 295 -465 711 -897 1249 -1300 101 -75 111 -83 88 -75 -12 5
-20 1 -24 -9 -22 -58 -231 -114 -629 -170 -1126 -157 -2319 -69 -3250 239
-513 170 -878 375 -1130 636 -55 57 -103 103 -107 101 -4 -1 -5 4 -2 12 3 8
-4 20 -15 28 -20 14 -19 17 51 88 226 229 603 454 1038 618 657 248 1489 394
2275 401 l180 1 29 -83z m1477 -73 c271 -51 645 -165 909 -278 349 -150 645
-342 821 -534 62 -68 93 -112 68 -97 -9 6 -11 3 -6 -8 3 -9 1 -19 -5 -23 -7
-5 -8 -2 -3 6 5 9 4 11 -4 6 -6 -4 -10 -15 -9 -24 2 -9 -1 -17 -7 -17 -5 -1
-30 -20 -54 -43 -88 -84 -192 -107 -291 -64 -85 37 -361 194 -509 289 -47 31
-111 72 -141 92 -262 169 -716 533 -796 638 -16 21 -36 45 -46 55 -10 10 -16
18 -14 18 2 0 41 -7 87 -16z m6396 -1356 c-3 -8 -6 -5 -6 6 -1 11 2 17 5 13 3
-3 4 -12 1 -19z m-10 -350 c-3 -7 -5 -2 -5 12 0 14 2 19 5 13 2 -7 2 -19 0
-25z m-1384 -205 c-7 -2 -19 -2 -25 0 -7 3 -2 5 12 5 14 0 19 -2 13 -5z m-50
-10 c-7 -2 -19 -2 -25 0 -7 3 -2 5 12 5 14 0 19 -2 13 -5z m-70 -10 c-7 -2
-21 -2 -30 0 -10 3 -4 5 12 5 17 0 24 -2 18 -5z m-70 -10 c-7 -2 -21 -2 -30 0
-10 3 -4 5 12 5 17 0 24 -2 18 -5z m-135 -10 c-10 -2 -26 -2 -35 0 -10 3 -2 5
17 5 19 0 27 -2 18 -5z m-185 -10 c-29 -2 -78 -2 -110 0 -32 2 -8 3 52 3 61 0
87 -1 58 -3z"/>
<path d="M11478 1844 c-39 -21 -35 -28 5 -8 37 19 44 24 31 24 -5 -1 -21 -8
-36 -16z"/>
<path d="M11410 1810 c-8 -5 -10 -10 -5 -10 6 0 17 5 25 10 8 5 11 10 5 10 -5
0 -17 -5 -25 -10z"/>
<path d="M6478 5973 c7 -3 16 -2 19 1 4 3 -2 6 -13 5 -11 0 -14 -3 -6 -6z"/>
<path d="M6523 5973 c9 -2 23 -2 30 0 6 3 -1 5 -18 5 -16 0 -22 -2 -12 -5z"/>
</g>
</svg>
